<svg id="Layer_1" data-name="Layer 1" xmlns="http://www.w3.org/2000/svg" viewBox="0 0 1629.8 258.25"><defs><style>.cls-1{fill:#31b1c0;}.cls-2,.cls-4{fill:#f6c84d;}.cls-3{fill:#fbb749;}.cls-3,.cls-4{fill-rule:evenodd;}.cls-5{fill:#37545b;}.cls-6{fill:#51747e;}</style></defs><title>Logo-ES</title><path class="cls-1" d="M330.68,93.24C363,93.24,378.77,110,378.77,110L365,127.4a56.35,56.35,0,0,0-33.79-11.7c-22.84,0-42.34,18-42.34,44.75,0,28.78,19.69,46.41,43.27,46.41,21,0,33.42-17.11,33.42-17.11v-6.46c0-2.79-1.49-4.09-4.08-4.09h-8V158.59h21.35c8.91,0,12.63,3.72,12.63,12.44v56.26H366.7V221c0-2.79.19-5.57.19-5.57h-.37s-14.11,14.11-38.81,14.11c-34.53,0-64-26.37-64-68.89C263.66,122.76,292.43,93.24,330.68,93.24Z" transform="translate(-31.72 -17.06)"/><path class="cls-1" d="M468.07,93.24c32.08,0,48.2,16.71,48.2,16.71L502.53,127.4a56.08,56.08,0,0,0-33.91-11.51c-23.58,0-42.14,16.89-42.14,44.37,0,25.81,18.94,46.6,42.89,46.6,24.88,0,39.92-17.45,39.92-17.45l12.81,17.45S503,229.52,469,229.52c-40.29,0-67.76-30.27-67.76-69.26C401.23,122.2,429.82,93.24,468.07,93.24Z" transform="translate(-31.72 -17.06)"/><path class="cls-1" d="M545.67,116.07H533.6V95.46h75.2c8.91,0,12.62,3.9,12.62,12.63v20H599.51v-8a3.71,3.71,0,0,0-4.08-4.09H570v37.32h42.15V174H570v53.29H545.67Z" transform="translate(-31.72 -17.06)"/><path class="cls-1" d="M476.9,152.37" transform="translate(-31.72 -17.06)"/><path class="cls-1" d="M41.79,150.51A107.12,107.12,0,0,1,233.06,126.1,107.14,107.14,0,1,0,49.19,235.78,106.83,106.83,0,0,1,41.79,150.51Z" transform="translate(-31.72 -17.06)"/><path class="cls-2" d="M228.2,55.69l7,.09h.26l.13-.2,3.78-5.52,2.42,6.46.09.22.25.07,6.82,2-5.54,3.9-.21.14,0,.24.43,6.77-5.84-4-.21-.15-.24.08-6.55,2.17,1.93-6.41.06-.22-.15-.2-4.49-5.42" transform="translate(-31.72 -17.06)"/><path class="cls-2" d="M226,76.84l4.38,1.52.16.06.12-.1,3.5-2.66.17,4.53v.16l.14.1,3.84,2.67L234,84.4l-.14,0,0,.15-1.13,4.31-2.81-3.74-.09-.13h-4.71l2.53-3.59.1-.12-.07-.16L226,76.84" transform="translate(-31.72 -17.06)"/><path class="cls-2" d="M194.29,37l13,4.75,3.07,12.79,9-10.18,13.94,1.06-7.44-11,5.54-12.13L217.8,25.63l-10.52-8.57-.94,13.12L194.29,37Z" transform="translate(-31.72 -17.06)"/><path class="cls-3" d="M164.36,209c-1.43.11-14.85,1.65-30.08,11.55,8.63-11.37,23.13-15.51,24.67-15.84s-1.69-13.11-3.6-12.43-19,5.9-34.57,23a91.26,91.26,0,0,0-8.2,10.56c-2.32-3.4-4.41-15.64-2.64-22.35.66-2.5-12.42-9.89-13.15-4.48a53.23,53.23,0,0,0,0,5.91c.23,11.67,5.7,26.93,8.53,32.19,1.66,3.09,3.13,5.54,2.84,6s-.57.77-.87,1.16a11.76,11.76,0,1,0,8.38,5.81,7,7,0,0,1,.65-.7c.46-.39,6.08,2.56,7.5,2.76,2.32.34,20.45.1,25.58,0,2.53,0,3.84.33,5.56.28a14.72,14.72,0,0,0,5.71-1.48c1.29-.57-.9-9.58-3.18-9.16-7.9,1.46-24.06,2.18-26.15-.09-.34-.37,4.64-8.81,8.41-11.67,0,0,9.17-8.14,25.68-8.52C167.76,221.42,166.44,208.83,164.36,209Z" transform="translate(-31.72 -17.06)"/><path class="cls-3" d="M222.49,98a13.1,13.1,0,0,1-5-6.82c-.55-2,1.36-3.91,1.22-5-.4-3.09-3.59,2.17-6.42.55s-31.38-16.34-33.79-16.64c-5.09-.63-9.3-.57-9.59-1.26-.2-.47-.48-1.25-.72-1.91a17.31,17.31,0,1,0-13.84,5.59,9.47,9.47,0,0,1,.34,1.36c.1.87-8,5.42-9.37,7-2.26,2.59-16.41,24.25-20.93,30.26-1.53,2-7.71,2.63-6.58,17.08.23,2.88,9.29,5.67,12.09,2.95,2.51-2.43,5.11-6.12,7.08-12.41C139.87,109.43,149,99,152.15,98.44c.72-.12,8.4,12,8.89,18.91,0,0,1.7,17-11.71,36.63-1.9,2.77,15.16,12.17,16.6,9.49,1-1.87,9.84-16.72,11.72-44.56,6.28,20.28.21,40-.61,42.11s16.66,7.2,17.36,4.3,6.92-26.47-1.38-58.87c-2.63-10.23-7.53-19-6.61-19,1.87,0,16.09,8,18.87,10.79,3.13,3.18,6.91,5.94,10.78,6.68C219.67,105.57,224.34,99.35,222.49,98Z" transform="translate(-31.72 -17.06)"/><path class="cls-4" d="M162.13,167.84a90,90,0,0,0-19.38-12.44c1.31-3.68,1.77-6.33.74-6.88-5.43-2.93-34.09-5.9-41-3.19l-.67,0c1.29-2.88,12.89-13.72,19.28-13.71,3.54,0,5.13,2,7.4.38s-4.77-3.13,3.07-8.41c3-2-1.91-9.5-3.68-9a33.43,33.43,0,0,0-4.82,2.11c-.45.26.26,4.27-1.79,4.81-1.83.47-2-3.6-2.52-3.28C105.35,125.76,86.6,143.93,86,145c-2.25,3.49-3.68,6.57-4.28,6.55s-1.27-.11-1.89-.17A15.12,15.12,0,0,0,68,141.29,14.69,14.69,0,0,0,51.06,153.7a15.17,15.17,0,0,0,12.56,17.16,14.63,14.63,0,0,0,15.23-7.51,11.85,11.85,0,0,1,1.52.29c.68.22,1.16,7.72,1.83,9.29,1.1,2.56,10.44,21.2,14.59,26.06,1.95,2.27,2.58-1.07,3.84.18,1,1,.46,4,.66,5.85.38,3.47,7.35,3.4,7.86,1.34,1.54-6.22,1.93-2,2.7-3.65.94-2-.78-4.43-1.76-5.63C107,193.2,97.61,178.5,97.36,174.7c1.86.09,16.73,1.22,25,14.35.63,1,2.84-1.43,5.62-5.51a56.25,56.25,0,0,1,10.91,12.55c1.47,2.29,13.39-6.82,11.93-8.81-.72-1-6-7.76-16.07-14.93q1-1.77,1.92-3.57a60.78,60.78,0,0,1,15.14,10.38C153,180.5,164,169.36,162.13,167.84Z" transform="translate(-31.72 -17.06)"/><path class="cls-4" d="M202.19,232.76c-1,.84-2.47,3.24-3.42,4.46-3.22,4.14-8,7.91-9.74,8.19a16.18,16.18,0,0,1,2.36-15c.32-.44-.85-.87-2.87-1.26a52.89,52.89,0,0,1,5-8.38c.58-.83-7.23-3.71-8.41-2.83s-4.27,5-5.92,10.16c-1.22-.08-2.46-.15-3.69-.19.09-4.36,2.08-7.85,1.95-8.64s-7.62-2.8-8-2.51c-.95.66-2.38,4.24-2.17,11.25-2.41.2-4,.6-4,1.27-.1,3.25,5.26,16.53,8.61,20.95v0c-2.39,0-6.49-2.27-10.19-5.18-.95-.76.19-2.69-.74-2.54a2.26,2.26,0,0,1-2.72-.72c-1.43-1.43-6.06,2.22-5.59,3.23a19.66,19.66,0,0,0,2.84,4c.67.79,2.47-1.06,2.91-.75,1.48,1-.34,2.42,1,3.24s14.92,7.44,16.1,7.61c2.5.35,4.57.37,4.69.71.06.14.12.33.19.52a8.71,8.71,0,0,0-2.54,9.09,8.42,8.42,0,0,0,10.7,5.5A8.71,8.71,0,0,0,194.1,264a8.41,8.41,0,0,0-6.65-5.78,5.25,5.25,0,0,1-.19-.82c0-.43,4-2.57,4.75-3.34,1.18-1.25,9.72-8.5,11.82-11.59,1-1.51,3.64-.2,4-1.21.32-.8-1.18-1.2-1.23-2.31a3.71,3.71,0,0,1,1.54-3.4C209.33,234.57,204.72,230.69,202.19,232.76Z" transform="translate(-31.72 -17.06)"/><path class="cls-5" d="M642,199.77h2.52c2.65,0,3.91-.61,4.85-3.43l33.13-90.58H704l33,90.58c.94,2.82,2.19,3.43,4.85,3.43h2.52V217.2H732.11c-7.85,0-10.69-2-13.18-9.11L712,188.63H674.33l-6.9,19.46c-2.5,7.07-5.17,9.11-13,9.11H642Zm65.3-28.09-9.58-27.94c-2-6.12-4.4-16.63-4.4-16.63H693s-2.34,10.51-4.38,16.63l-9.58,27.94Z" transform="translate(-31.72 -17.06)"/><path class="cls-5" d="M759.09,157.55c0-2.35-1.23-3.46-3.44-3.46h-6.27V137.15h17.73c7.38,0,10,3.3,10,7.68V148h.32s6.74-12.7,25.43-12.7c21.64,0,35.62,17.12,35.62,41.91,0,25.42-15.69,41.91-36.72,41.91-15.85,0-22.93-10.53-22.93-10.53h-.31s.31,2.83.31,6.92v33.1H759.09Zm39.09,44.73c11,0,20.25-8.93,20.25-24.79,0-15.24-8.16-25.1-19.94-25.1-10.35,0-20.09,7.51-20.09,25.26C778.4,190.05,785,202.28,798.18,202.28Z" transform="translate(-31.72 -17.06)"/><path class="cls-5" d="M856.57,157.55c0-2.35-1.26-3.46-3.46-3.46h-6.27V137.15h18.21c7.06,0,10.67,3,10.67,9.74v4.7a36.93,36.93,0,0,1-.31,5h.31c3.6-11.46,13.18-20.55,25.43-20.55a26.19,26.19,0,0,1,3.59.3V156a35.38,35.38,0,0,0-4.85-.31c-8.48,0-18.21,4.86-21.82,16.79a48.64,48.64,0,0,0-1.74,13V217.2H856.57Z" transform="translate(-31.72 -17.06)"/><path class="cls-5" d="M950.89,135.27c22.92,0,35.49,16.79,35.49,38,0,2.35-.47,7.36-.47,7.36H930.66c1.55,14.13,11.92,21.5,24,21.5,12.87,0,22.44-8.93,22.44-8.93L985.43,207a48.68,48.68,0,0,1-32.16,12.09c-26.55,0-43-19.15-43-41.91C910.25,152.54,926.88,135.27,950.89,135.27ZM966,166.81c-.32-9.57-6.92-16.17-15.08-16.17-10.19,0-17.41,6.12-19.6,16.17Z" transform="translate(-31.72 -17.06)"/><path class="cls-5" d="M1005.67,157.55c0-2.35-1.25-3.46-3.47-3.46h-6.26V137.15h18.37c7.06,0,10.5,3.3,10.5,8.94v2.36a22.28,22.28,0,0,1-.31,3.45h.31c3.47-6.75,12.1-16.63,28.26-16.63,17.75,0,27.94,9.27,27.94,30.44V197a3.14,3.14,0,0,0,3.45,3.46h6.29V217.2h-19c-7.55,0-10.68-3.14-10.68-10.67V169.8c0-9.74-2.51-16.34-12.56-16.34-10.67,0-18.67,6.76-21.5,16.34a33.44,33.44,0,0,0-1.58,10.67V217.2h-19.77Z" transform="translate(-31.72 -17.06)"/><path class="cls-5" d="M1135,135.27c17.43,0,23.08,9.72,23.08,9.72h.31s-.16-2-.16-4.7V126.17c0-2.36-1.26-3.47-3.46-3.47h-6.27V105.76h19c7.38,0,10.68,3.29,10.68,10.66V197a3.14,3.14,0,0,0,3.46,3.46h6.12V217.2h-18.37c-7.22,0-9.89-3.46-9.89-8.16v-3h-.31s-6.58,13-25,13c-21.67,0-35.65-17.1-35.65-41.91C1098.58,151.74,1113.82,135.27,1135,135.27ZM1158.71,177c0-12.39-6.45-24.63-19.79-24.63-11,0-20.09,8.94-20.09,24.79,0,15.22,8,25.1,19.78,25.1C1149,202.28,1158.71,194.75,1158.71,177Z" transform="translate(-31.72 -17.06)"/><path class="cls-5" d="M1236.86,135.27c22.92,0,35.47,16.79,35.47,38,0,2.35-.45,7.36-.45,7.36h-55.27c1.57,14.13,11.93,21.5,24,21.5,12.88,0,22.44-8.93,22.44-8.93l8.34,13.81a48.75,48.75,0,0,1-32.19,12.09c-26.53,0-43-19.15-43-41.91C1196.22,152.54,1212.85,135.27,1236.86,135.27Zm15.08,31.54c-.31-9.57-6.92-16.17-15.08-16.17-10.2,0-17.42,6.12-19.62,16.17Z" transform="translate(-31.72 -17.06)"/><path class="cls-6" d="M1295.41,120c0-2.35-1.26-3.46-3.46-3.46h-6.74v-9.72h11.62c6.74,0,9.57,2.83,9.57,9.56V204c0,2.35,1.26,3.45,3.44,3.45h36.59c2.18,0,3.44-1.1,3.44-3.45v-7.39h10.36v11c0,6.74-2.83,9.57-9.57,9.57H1305c-6.76,0-9.58-2.83-9.58-9.57Z" transform="translate(-31.72 -17.06)"/><path class="cls-6" d="M1376.25,151a3.13,3.13,0,0,0-3.45-3.44h-6.59v-9.26h11.13c6.74,0,9.57,2.82,9.57,9.55V204.5c0,2.34,1.27,3.43,3.46,3.43H1397v9.27h-11.15c-6.74,0-9.56-2.83-9.56-9.57Zm-.32-44.1h10.36v13.5h-10.36Z" transform="translate(-31.72 -17.06)"/><path class="cls-6" d="M1414.38,119.57a3.15,3.15,0,0,0-3.45-3.46h-6.6v-9.25h11.15c6.75,0,9.58,2.83,9.58,9.56V145a63.55,63.55,0,0,1-.32,6.44h.32s6.59-15.07,26.84-15.07c21.19,0,34.39,17,34.39,41.45,0,24.95-14.93,41.28-35.65,41.28a28.77,28.77,0,0,1-25.9-15.23h-.31a61.92,61.92,0,0,1,.31,6.45v6.89h-10.36Zm35.47,90.1c14,0,25.43-11.77,25.43-31.86,0-19.31-10.35-31.72-24.94-31.72-13.19,0-25.6,9.43-25.6,31.87C1424.74,193.81,1432.9,209.67,1449.85,209.67Z" transform="translate(-31.72 -17.06)"/><path class="cls-6" d="M1506.51,151a3.13,3.13,0,0,0-3.46-3.44h-6.58v-9.26h11c6.59,0,9.58,2.66,9.58,8.94v5.34a55.89,55.89,0,0,1-.32,6h.32c3.78-11.93,12.54-21,25-21a21.56,21.56,0,0,1,4.25.47v10.52a26.71,26.71,0,0,0-3.94-.32c-11.14,0-19.46,8.8-22.9,20.41a52.12,52.12,0,0,0-2.2,15.39V217.2h-10.68Z" transform="translate(-31.72 -17.06)"/><path class="cls-6" d="M1591.74,136.36c21.83,0,33.11,16.81,33.11,36.42,0,1.88-.29,5.34-.29,5.34H1564c.32,19.94,14.3,31.39,30.61,31.39,14.44,0,23.7-9.74,23.7-9.74l5.17,8a44.73,44.73,0,0,1-29.34,11.3c-23.39,0-41.29-17-41.29-41.28C1552.81,151.9,1570.55,136.36,1591.74,136.36Zm22.14,33.28c-.63-16.31-10.68-24.33-22.29-24.33-13,0-24.48,8.47-27.16,24.33Z" transform="translate(-31.72 -17.06)"/><path class="cls-5" d="M1661.52,107.12a24.28,24.28,0,1,1-48.55,0c0-13.11,10.8-23.62,24.34-23.62S1661.52,94,1661.52,107.12Zm-42.5,0c0,10.52,7.78,18.88,18.44,18.88,10.37,0,18-8.36,18-18.73s-7.64-19-18.16-19S1619,96.75,1619,107.12Zm14.54,12.39h-5.47V95.89a46.82,46.82,0,0,1,9.08-.73c4.47,0,6.49.73,8.22,1.73a6.64,6.64,0,0,1,2.3,5.2c0,2.59-2,4.61-4.9,5.47v.29c2.31.86,3.6,2.59,4.32,5.76.72,3.6,1.16,5,1.73,5.9h-5.91c-.71-.86-1.15-3-1.88-5.76-.42-2.59-1.86-3.76-4.9-3.76h-2.59Zm.15-13.39h2.59c3,0,5.48-1,5.48-3.46,0-2.16-1.58-3.6-5-3.6a13.27,13.27,0,0,0-3,.28Z" transform="translate(-31.72 -17.06)"/></svg>