<svg xmlns="http://www.w3.org/2000/svg" viewBox="4549.5 26 258.146 48.799">
  <defs>
    <style>
      .cls-1, .cls-2 {
        fill: #707980;
      }

      .cls-2 {
        fill-rule: evenodd;
      }
    </style>
  </defs>
  <g id="Symbol_10_1" data-name="Symbol 10 – 1" transform="translate(1808.5 558)">
    <path id="Path_2" data-name="Path 2" class="cls-1" d="M170.808.2c7.226,0,10.766,3.745,10.766,3.745L178.5,7.865a12.587,12.587,0,0,0-7.577-2.633c-5.12,0-9.479,4.037-9.479,10.035,0,6.436,4.418,10.386,9.684,10.386a9.986,9.986,0,0,0,7.49-3.833V20.387a.805.805,0,0,0-.907-.907h-1.785V14.828h4.8c1.989,0,2.838.819,2.838,2.779V30.217h-4.652v-1.4c0-.614.029-1.258.029-1.258h-.088a12.9,12.9,0,0,1-8.689,3.16c-7.724,0-14.365-5.91-14.365-15.447A14.761,14.761,0,0,1,170.808.2Z" transform="translate(2630.772 -532.141)"/>
    <path id="Path_3" data-name="Path 3" class="cls-1" d="M276.008.2c7.2,0,10.8,3.745,10.8,3.745l-3.072,3.92a12.57,12.57,0,0,0-7.607-2.575c-5.3,0-9.45,3.774-9.45,9.947,0,5.793,4.242,10.444,9.6,10.444a12.58,12.58,0,0,0,8.952-3.92l2.867,3.92a16.354,16.354,0,0,1-11.907,5.061c-9.04,0-15.184-6.787-15.184-15.506A14.7,14.7,0,0,1,276.008.2Z" transform="translate(2556.35 -532.141)"/>
    <path id="Path_4" data-name="Path 4" class="cls-1" d="M365.191,6.493H362.5V1.9h16.851c1.989,0,2.838.878,2.838,2.838V9.243h-4.915V7.459a.818.818,0,0,0-.907-.907h-5.7v8.367h9.45v4.564h-9.45V31.419h-5.442V6.493Z" transform="translate(2484.544 -533.344)"/>
    <path id="Path_5" data-name="Path 5" class="cls-1" d="M348.3,36.3" transform="translate(2494.59 -557.68)"/>
    <g id="Group_8" data-name="Group 8" transform="translate(2741 -531.707)">
      <path id="Path_6" data-name="Path 6" class="cls-1" d="M1.893,49.757a19.972,19.972,0,0,1,35.663-4.564A19.966,19.966,0,1,0,3.3,65.643,19.809,19.809,0,0,1,1.893,49.757Z" transform="translate(-0.029 -24.86)"/>
      <g id="Group_6" data-name="Group 6" transform="translate(30.301)">
        <g id="Group_3" data-name="Group 3" transform="translate(6.319 6.202)">
          <path id="Path_7" data-name="Path 7" class="cls-1" d="M125.2,23.224l1.317.029h.059l.029-.029.7-1.024.439,1.2.029.029h.059l1.258.38-1.024.731-.029.029v.059l.088,1.258-1.083-.761-.029-.029-.029.029-1.229.41.351-1.2v-.029l-.029-.029-.878-1.053" transform="translate(-125.2 -22.2)"/>
        </g>
        <g id="Group_4" data-name="Group 4" transform="translate(5.734 10.912)">
          <path id="Path_8" data-name="Path 8" class="cls-1" d="M123.376,38.534l.819.293h.029l.029-.029.644-.5.029.848v.029l.029.029.7.5-.79.234h-.029v.029l-.2.79-.527-.7-.029-.029H123.2l.468-.673.029-.029v-.029l-.322-.761" transform="translate(-123.2 -38.3)"/>
        </g>
        <g id="Group_5" data-name="Group 5">
          <path id="Path_9" data-name="Path 9" class="cls-1" d="M103.6,4.745l2.428.878.585,2.37,1.668-1.9,2.6.2L109.51,4.247l1.024-2.253-2.545.614L106.028,1l-.176,2.457L103.6,4.745Z" transform="translate(-103.6 -1)"/>
        </g>
      </g>
      <g id="Group_7" data-name="Group 7" transform="translate(3.587 3.801)">
        <path id="Path_10" data-name="Path 10" class="cls-2" d="M52.368,115.786a13.667,13.667,0,0,0-5.617,2.165A9.16,9.16,0,0,1,51.344,115c.293-.059-.322-2.457-.673-2.311a15.509,15.509,0,0,0-6.436,4.271,16.112,16.112,0,0,0-1.521,1.96,7.177,7.177,0,0,1-.5-4.154c.117-.468-2.311-1.843-2.458-.848-.029.263,0,.79,0,1.112a16.2,16.2,0,0,0,1.58,6c.322.585.585,1.024.527,1.112a1.093,1.093,0,0,1-.176.2,2.273,2.273,0,0,0-2.136.848,2.233,2.233,0,0,0,.38,3.13,2.2,2.2,0,0,0,3.1-.439,2.282,2.282,0,0,0,.2-2.457c.059-.059.088-.117.117-.117.088-.059,1.141.468,1.4.527.439.058,3.8.029,4.769,0,.468,0,.7.058,1.024.058a2.644,2.644,0,0,0,1.053-.263c.234-.117-.176-1.785-.585-1.7-1.463.263-4.476.41-4.886-.029a6.765,6.765,0,0,1,1.58-2.165,7.753,7.753,0,0,1,4.8-1.58C53.012,118.126,52.749,115.756,52.368,115.786Z" transform="translate(-31.242 -83.807)"/>
        <path id="Path_11" data-name="Path 11" class="cls-2" d="M74.284,25.287a2.471,2.471,0,0,1-.936-1.258c-.088-.38.263-.731.234-.936-.059-.585-.673.41-1.2.088-.527-.293-5.851-3.043-6.29-3.1a8.246,8.246,0,0,1-1.785-.234,3.039,3.039,0,0,0-.146-.351,3.207,3.207,0,0,0,.644-3.306,3.225,3.225,0,1,0-3.218,4.33,1.086,1.086,0,0,1,.059.263c.029.176-1.492,1.024-1.755,1.317-.439.5-3.072,4.535-3.92,5.646-.293.38-1.434.5-1.229,3.189.029.527,1.726,1.053,2.253.556a5.043,5.043,0,0,0,1.317-2.311c.556-1.726,2.253-3.686,2.838-3.774a7.868,7.868,0,0,1,1.668,3.511,11.106,11.106,0,0,1-2.194,6.817c-.351.527,2.838,2.282,3.1,1.755a19.524,19.524,0,0,0,2.194-8.309,13.747,13.747,0,0,1-.117,7.841c-.146.41,3.1,1.346,3.247.79a22.814,22.814,0,0,0-.263-10.971c-.5-1.9-1.4-3.54-1.229-3.54a14.25,14.25,0,0,1,3.511,2.019,4.272,4.272,0,0,0,2.019,1.258C73.757,26.692,74.606,25.551,74.284,25.287Z" transform="translate(-42.304 -13.992)"/>
        <path id="Path_12" data-name="Path 12" class="cls-2" d="M33.005,73.03a15.878,15.878,0,0,0-3.628-2.311c.234-.673.322-1.17.146-1.287-1.024-.556-6.349-1.112-7.636-.585h-.117c.234-.556,2.4-2.574,3.6-2.574.673,0,.965.38,1.375.059.41-.293-.878-.585.585-1.58.556-.38-.351-1.785-.673-1.668-.176.059-.673.263-.907.38-.088.059.059.79-.322.907-.351.088-.351-.673-.468-.614a35.225,35.225,0,0,0-6.144,5c-.41.644-.673,1.229-.79,1.229-.088,0-.234-.029-.351-.029a2.768,2.768,0,1,0-3.013,3.628,2.69,2.69,0,0,0,2.838-1.4,2.537,2.537,0,0,1,.293.059c.117.029.2,1.434.351,1.726a37.947,37.947,0,0,0,2.721,4.856c.351.41.468-.2.7.029.176.176.088.761.117,1.082.059.644,1.375.644,1.463.263.293-1.17.351-.38.5-.673.176-.38-.146-.819-.322-1.053-.585-.731-2.34-3.452-2.37-4.184A6.109,6.109,0,0,1,25.6,76.951c.117.176.527-.263,1.053-1.024a10.442,10.442,0,0,1,2.048,2.34c.263.439,2.487-1.258,2.223-1.638a14.911,14.911,0,0,0-2.984-2.779c.117-.234.234-.439.351-.673A11.3,11.3,0,0,1,31.1,75.107C31.308,75.4,33.356,73.323,33.005,73.03Z" transform="translate(-12.289 -48.716)"/>
        <path id="Path_13" data-name="Path 13" class="cls-2" d="M86.159,131.269a6.127,6.127,0,0,0-.644.819A5.166,5.166,0,0,1,83.7,133.61a3.018,3.018,0,0,1,.439-2.809c.058-.088-.146-.146-.527-.234a8.293,8.293,0,0,1,.936-1.551c.117-.146-1.346-.7-1.58-.527a4.772,4.772,0,0,0-1.112,1.9,5.409,5.409,0,0,0-.673-.029,9.529,9.529,0,0,1,.351-1.609,4.03,4.03,0,0,0-1.492-.468c-.176.117-.439.79-.41,2.106-.439.029-.731.117-.761.234a10.907,10.907,0,0,0,1.609,3.891h0a3.984,3.984,0,0,1-1.9-.965c-.176-.146.029-.5-.146-.468-.146.029-.263.117-.5-.146-.263-.263-1.141.41-1.053.614a3.152,3.152,0,0,0,.527.731c.117.146.468-.2.556-.146.263.2-.059.439.176.614.263.146,2.779,1.375,3.013,1.4.468.059.848.059.878.146,0,.029.029.058.029.088a1.6,1.6,0,0,0-.468,1.7,1.576,1.576,0,0,0,1.989,1.024,1.611,1.611,0,0,0,1.053-2.019,1.548,1.548,0,0,0-1.229-1.083.318.318,0,0,1-.029-.146c0-.088.761-.468.878-.614a24.83,24.83,0,0,0,2.194-2.165c.2-.293.673-.029.761-.234.059-.146-.234-.234-.234-.439a.713.713,0,0,1,.293-.644C87.505,131.591,86.627,130.889,86.159,131.269Z" transform="translate(-57.982 -94.843)"/>
      </g>
    </g>
    <g id="Group_9" data-name="Group 9" transform="translate(2870.42 -532)">
      <path id="Path_14" data-name="Path 14" class="cls-1" d="M457.086,0c6.817,0,10.269,3.6,10.269,3.6l-1.726,2.165a13.3,13.3,0,0,0-8.514-3.013c-6.612,0-11.673,5.3-11.673,12.375,0,7.226,4.973,12.492,11.615,12.492a12.7,12.7,0,0,0,9.274-4.3V19.689a.806.806,0,0,0-.907-.907H463.64v-2.6h2.926c1.785,0,2.545.761,2.545,2.545V29.87h-2.662V27.647c0-.614.029-1.258.029-1.258h-.088a13.28,13.28,0,0,1-9.625,3.979c-8.016,0-14.365-6.436-14.365-15.242C442.4,6.7,448.748,0,457.086,0Z" transform="translate(-442.4)"/>
      <path id="Path_15" data-name="Path 15" class="cls-1" d="M546.962,5.094a.818.818,0,0,0-.907-.907H544.3V1.7h2.955c1.784,0,2.545.761,2.545,2.545V27.679a.806.806,0,0,0,.907.907h1.755v2.458h-2.955c-1.785,0-2.545-.761-2.545-2.545Z" transform="translate(-514.488 -1.203)"/>
      <path id="Path_16" data-name="Path 16" class="cls-1" d="M592.888,28.6A11.015,11.015,0,1,1,581.8,39.512,10.885,10.885,0,0,1,592.888,28.6Zm.059,19.455a8.3,8.3,0,0,0,8.162-8.572,8.178,8.178,0,1,0-16.354,0A8.269,8.269,0,0,0,592.947,48.055Z" transform="translate(-541.017 -20.233)"/>
      <path id="Path_17" data-name="Path 17" class="cls-1" d="M667.662,5.094a.818.818,0,0,0-.907-.907H665V1.7h2.955c1.785,0,2.545.761,2.545,2.545v7.607a16.744,16.744,0,0,1-.088,1.726h.088a7.61,7.61,0,0,1,7.138-4.008c5.646,0,9.157,4.505,9.157,11.03,0,6.641-3.979,11-9.479,11a7.705,7.705,0,0,1-6.9-4.067h-.088a15.4,15.4,0,0,1,.088,1.726V31.1h-2.75Zm9.45,23.99c3.716,0,6.758-3.13,6.758-8.484,0-5.149-2.75-8.455-6.641-8.455-3.511,0-6.817,2.516-6.817,8.484C670.442,24.871,672.607,29.084,677.112,29.084Z" transform="translate(-599.876 -1.203)"/>
      <path id="Path_18" data-name="Path 18" class="cls-1" d="M763.26,37.172h1.17v-.263c0-4.388-1.58-5.939-5.442-5.939-1.053,0-4.1.293-4.1,1.843v1.346h-2.721V32.14c0-2.926,5-3.54,6.846-3.54,6.641,0,8.221,3.54,8.221,8.075V46.739a.806.806,0,0,0,.907.907H769.9V50.1h-2.9c-1.785,0-2.516-.79-2.516-2.516,0-.907.029-1.551.029-1.551h-.088a7.485,7.485,0,0,1-6.992,4.564c-3.511,0-7.138-2.048-7.138-6.232C750.388,37.406,759.6,37.172,763.26,37.172ZM757.994,48.2c4.008,0,6.436-4.184,6.436-7.811v-.965h-1.2c-3.306,0-9.918.088-9.918,4.8C753.313,46.183,754.864,48.2,757.994,48.2Z" transform="translate(-660.221 -20.233)"/>
      <path id="Path_19" data-name="Path 19" class="cls-1" d="M826.262,5.094a.818.818,0,0,0-.907-.907H823.6V1.7h2.955c1.785,0,2.545.761,2.545,2.545V27.679a.806.806,0,0,0,.907.907h1.755v2.458h-2.955c-1.785,0-2.545-.761-2.545-2.545Z" transform="translate(-712.076 -1.203)"/>
    </g>
    <g id="Group_10" data-name="Group 10" transform="translate(2992.827 -531.574)">
      <path id="Path_20" data-name="Path 20" class="cls-2" d="M867.09,1.469h-.614a.2.2,0,0,0-.234.176c-.205.7-.439,1.434-.644,2.136a1.333,1.333,0,0,0-.088.263,2.728,2.728,0,0,0-.088-.263c-.234-.7-.439-1.434-.673-2.136-.03-.088-.088-.176-.146-.176a5.623,5.623,0,0,0-.7,0V4.745h.5V2.112a.875.875,0,0,1,.117.234l.7,2.194c.058.234.2.176.38.2.176,0,.234-.059.263-.2.234-.731.439-1.492.673-2.223.029-.059.029-.117.058-.176h.059V4.716h.468C867.09,3.663,867.09,2.58,867.09,1.469Zm-5.237.5V4.745h.556V1.937h1.053V1.469H860.8v.468C861.151,1.966,861.473,1.966,861.853,1.966Z" transform="translate(-860.8 -1.456)"/>
      <path id="Path_21" data-name="Path 21" class="cls-2" d="M874.518,1.5V4.777h-.468V2.2h-.058a.415.415,0,0,0-.059.176c-.234.731-.468,1.492-.673,2.223-.059.146-.117.2-.263.2s-.292.029-.38-.2c-.2-.731-.468-1.463-.7-2.194a.586.586,0,0,0-.117-.234V4.806h-.5V1.529h.7c.059,0,.146.117.146.176.234.7.468,1.434.673,2.136a.146.146,0,1,0,.175,0c.234-.7.439-1.434.644-2.136.029-.146.088-.2.234-.176C874.108,1.529,874.313,1.5,874.518,1.5Z" transform="translate(-868.228 -1.487)"/>
      <path id="Path_22" data-name="Path 22" class="cls-2" d="M861.853,2.068H860.8V1.6h2.662v.468h-1.053V4.877h-.556Z" transform="translate(-860.8 -1.558)"/>
    </g>
    <g id="Group_11" data-name="Group 11" transform="translate(2786.835 -493.06)">
      <path id="Path_23" data-name="Path 23" class="cls-1" d="M160.444,133.1c1.024,0,2.809.439,2.809,1.638v.731h-.965v-.439c0-.614-1.053-.936-1.814-.936a2.669,2.669,0,0,0-2.692,2.838,2.81,2.81,0,0,0,2.721,2.955,3.31,3.31,0,0,0,2.37-1.024l.585.761a4.038,4.038,0,0,1-2.955,1.258,3.76,3.76,0,0,1-3.8-3.95A3.666,3.666,0,0,1,160.444,133.1Z" transform="translate(-156.699 -133.1)"/>
      <path id="Path_24" data-name="Path 24" class="cls-1" d="M183.173,141.77a.215.215,0,0,0-.234-.234H182.5v-.878h.965q.7,0,.7.614v.351a2.594,2.594,0,0,1-.029.38h.029a1.859,1.859,0,0,1,1.7-1.4,1.208,1.208,0,0,1,.263.029v1.024a1.832,1.832,0,0,0-.322-.029,1.65,1.65,0,0,0-1.521,1.258,3.633,3.633,0,0,0-.117.965v2.194h-1.024V141.77Z" transform="translate(-174.952 -138.406)"/>
      <path id="Path_25" data-name="Path 25" class="cls-1" d="M199.921,140.4a2.282,2.282,0,0,1,2.311,2.516c0,.146-.029.439-.029.439h-3.92a1.8,1.8,0,0,0,1.843,1.785,2.487,2.487,0,0,0,1.58-.614l.439.731a3.123,3.123,0,0,1-2.077.79,2.752,2.752,0,0,1-2.867-2.809A2.675,2.675,0,0,1,199.921,140.4Zm1.258,2.165a1.262,1.262,0,0,0-1.258-1.375,1.527,1.527,0,0,0-1.58,1.375Z" transform="translate(-185.351 -138.264)"/>
      <path id="Path_26" data-name="Path 26" class="cls-1" d="M221.547,142.465h.234v-.059c0-.936-.351-1.287-1.2-1.287-.263,0-.878.059-.878.41v.322h-.965v-.527c0-.878,1.346-1.024,1.872-1.024,1.755,0,2.223.907,2.223,2.106v2.282a.215.215,0,0,0,.234.234h.439v.878h-.965c-.468,0-.673-.234-.673-.614a1.833,1.833,0,0,1,.029-.322h-.029a1.867,1.867,0,0,1-1.726,1.053,1.685,1.685,0,0,1-1.843-1.638C218.3,142.582,220.64,142.465,221.547,142.465Zm-1.2,2.662a1.624,1.624,0,0,0,1.434-1.726v-.176h-.263c-.79,0-2.194.029-2.194,1.024A.94.94,0,0,0,220.348,145.127Z" transform="translate(-200.278 -138.194)"/>
      <path id="Path_27" data-name="Path 27" class="cls-1" d="M239.2,138.011h-.7v-.819h.731V135.7h1.024v1.492h1.287v.819h-1.287v2.458c0,1.083.732,1.2,1.141,1.2a.81.81,0,0,0,.234-.029v.907a1.976,1.976,0,0,1-.351.029,1.85,1.85,0,0,1-2.048-2.019v-2.545Z" transform="translate(-214.568 -134.939)"/>
      <path id="Path_28" data-name="Path 28" class="cls-1" d="M252.973,136.747a.215.215,0,0,0-.234-.234H252.3v-.878h1.024c.468,0,.673.2.673.673v3.6a.215.215,0,0,0,.234.234h.439v.878h-1.024c-.468,0-.673-.2-.673-.673ZM253,133.5h.936v1.082H253Z" transform="translate(-224.331 -133.383)"/>
      <path id="Path_29" data-name="Path 29" class="cls-1" d="M263.673,141.629a.215.215,0,0,0-.234-.234H263v-.878h.995c.468,0,.673.2.673.585v.2a1.837,1.837,0,0,1-.029.322h.029a2.174,2.174,0,0,1,2.019-1.229c1.287,0,1.843.7,1.843,2.077v2.34a.215.215,0,0,0,.234.234h.439v.878h-1.024c-.468,0-.673-.2-.673-.673v-2.545c0-.761-.146-1.346-1.024-1.346a1.756,1.756,0,0,0-1.7,1.317,1.935,1.935,0,0,0-.088.731v2.516h-1.024Z" transform="translate(-231.9 -138.264)"/>
      <path id="Path_30" data-name="Path 30" class="cls-1" d="M289.5,140.4a1.786,1.786,0,0,1,1.726.848h.029v-.176a.517.517,0,0,1,.585-.556h.995v.878H292.4a.209.209,0,0,0-.234.2v4.067a2.414,2.414,0,0,1-2.721,2.457,4.276,4.276,0,0,1-1.843-.439l.351-.819a3.538,3.538,0,0,0,1.463.351c.936,0,1.7-.41,1.7-1.492v-.351a2.449,2.449,0,0,1,.029-.351h-.029a1.715,1.715,0,0,1-1.609.819,2.471,2.471,0,0,1-2.4-2.75A2.437,2.437,0,0,1,289.5,140.4Zm1.668,2.692c0-1.4-.7-1.814-1.521-1.814-.936,0-1.463.673-1.463,1.785s.585,1.872,1.55,1.872C290.494,144.935,291.167,144.5,291.167,143.092Z" transform="translate(-248.95 -138.264)"/>
      <path id="Path_31" data-name="Path 31" class="cls-1" d="M324.162,133.1a3.8,3.8,0,0,1,3.862,3.833,3.863,3.863,0,1,1-7.724,0A3.8,3.8,0,0,1,324.162,133.1Zm0,6.758a2.826,2.826,0,0,0,2.75-2.926,2.751,2.751,0,1,0-5.5,0A2.826,2.826,0,0,0,324.162,139.858Z" transform="translate(-272.437 -133.1)"/>
      <path id="Path_32" data-name="Path 32" class="cls-1" d="M350.573,141.629a.215.215,0,0,0-.234-.234H349.9v-.878h.965c.468,0,.673.2.673.556v.293h.029a1.906,1.906,0,0,1,1.785-.965c1.434,0,2.37,1.141,2.37,2.809a2.52,2.52,0,0,1-2.457,2.809,1.819,1.819,0,0,1-1.638-.848H351.6a3.684,3.684,0,0,1,.029.468v2.4H350.6v-6.407Zm2.516,3.511c.848,0,1.55-.7,1.55-1.931,0-1.17-.614-1.931-1.521-1.931-.79,0-1.551.556-1.551,1.931C351.568,144.174,352.065,145.139,353.089,145.139Z" transform="translate(-293.377 -138.264)"/>
      <path id="Path_33" data-name="Path 33" class="cls-1" d="M373.373,141.629a.215.215,0,0,0-.234-.234H372.7v-.878h.965c.468,0,.673.2.673.556v.293h.029a1.905,1.905,0,0,1,1.785-.965c1.434,0,2.37,1.141,2.37,2.809a2.52,2.52,0,0,1-2.458,2.809,1.819,1.819,0,0,1-1.638-.848H374.4a3.676,3.676,0,0,1,.029.468v2.4h-1.053Zm2.516,3.511c.848,0,1.551-.7,1.551-1.931,0-1.17-.614-1.931-1.521-1.931-.79,0-1.55.556-1.55,1.931C374.368,144.174,374.894,145.139,375.889,145.139Z" transform="translate(-309.507 -138.264)"/>
      <path id="Path_34" data-name="Path 34" class="cls-1" d="M399,140.4a2.824,2.824,0,1,1-2.9,2.809A2.793,2.793,0,0,1,399,140.4Zm0,4.739a1.857,1.857,0,0,0,1.843-1.931,1.844,1.844,0,1,0-3.686,0A1.857,1.857,0,0,0,399,145.139Z" transform="translate(-326.061 -138.264)"/>
      <path id="Path_35" data-name="Path 35" class="cls-1" d="M419.573,141.77a.215.215,0,0,0-.234-.234H418.9v-.878h.965q.7,0,.7.614v.351a2.6,2.6,0,0,1-.029.38h.029a1.859,1.859,0,0,1,1.7-1.4,1.209,1.209,0,0,1,.263.029v1.024a1.834,1.834,0,0,0-.322-.029,1.65,1.65,0,0,0-1.521,1.258,3.632,3.632,0,0,0-.117.965v2.194h-1.024V141.77Z" transform="translate(-342.19 -138.406)"/>
      <path id="Path_36" data-name="Path 36" class="cls-1" d="M434.6,138.011h-.7v-.819h.731V135.7h1.024v1.492h1.287v.819h-1.287v2.458c0,1.083.731,1.2,1.141,1.2a.81.81,0,0,0,.234-.029v.907a1.978,1.978,0,0,1-.351.029,1.85,1.85,0,0,1-2.048-2.019v-2.545Z" transform="translate(-352.802 -134.939)"/>
      <path id="Path_37" data-name="Path 37" class="cls-1" d="M448.173,141.912a.215.215,0,0,0-.234-.234H447.5V140.8h1.024c.5,0,.7.2.7.673v2.545c0,.731.147,1.346.995,1.346a1.846,1.846,0,0,0,1.755-2.019v-2.516H453V145.1a.215.215,0,0,0,.234.234h.439v.878h-.995c-.468,0-.673-.2-.673-.585V145.1h-.029a2.171,2.171,0,0,1-1.989,1.229c-1.2,0-1.843-.644-1.843-2.077v-2.341Z" transform="translate(-362.423 -138.547)"/>
      <path id="Path_38" data-name="Path 38" class="cls-1" d="M471.673,141.629a.215.215,0,0,0-.234-.234H471v-.878h.995c.468,0,.673.2.673.585v.2a1.824,1.824,0,0,1-.029.322h.029a2.174,2.174,0,0,1,2.018-1.229c1.287,0,1.843.7,1.843,2.077v2.34a.215.215,0,0,0,.234.234h.439v.878h-1.024c-.468,0-.673-.2-.673-.673v-2.545c0-.761-.146-1.346-1.024-1.346a1.756,1.756,0,0,0-1.7,1.317,1.936,1.936,0,0,0-.088.731v2.516h-1.024Z" transform="translate(-379.048 -138.264)"/>
      <path id="Path_39" data-name="Path 39" class="cls-1" d="M495.573,136.747a.215.215,0,0,0-.234-.234H494.9v-.878h1.024c.468,0,.673.2.673.673v3.6a.215.215,0,0,0,.234.234h.439v.878h-1.024c-.468,0-.673-.2-.673-.673Zm0-3.247h.936v1.082h-.936Z" transform="translate(-395.956 -133.383)"/>
      <path id="Path_40" data-name="Path 40" class="cls-1" d="M506.3,138.011h-.7v-.819h.731V135.7h1.024v1.492h1.287v.819h-1.287v2.458c0,1.083.732,1.2,1.141,1.2a.808.808,0,0,0,.234-.029v.907a1.975,1.975,0,0,1-.351.029,1.85,1.85,0,0,1-2.048-2.019v-2.545Z" transform="translate(-403.525 -134.939)"/>
      <path id="Path_41" data-name="Path 41" class="cls-1" d="M520.173,136.747a.215.215,0,0,0-.234-.234H519.5v-.878h1.024c.468,0,.673.2.673.673v3.6a.215.215,0,0,0,.234.234h.439v.878h-1.024c-.468,0-.673-.2-.673-.673Zm0-3.247h.937v1.082h-.937Z" transform="translate(-413.359 -133.383)"/>
      <path id="Path_42" data-name="Path 42" class="cls-1" d="M533.321,140.4a2.282,2.282,0,0,1,2.311,2.516c0,.146-.029.439-.029.439h-3.92a1.8,1.8,0,0,0,1.843,1.785,2.487,2.487,0,0,0,1.58-.614l.439.731a3.124,3.124,0,0,1-2.077.79,2.752,2.752,0,0,1-2.867-2.809A2.675,2.675,0,0,1,533.321,140.4Zm1.258,2.165a1.262,1.262,0,0,0-1.258-1.375,1.527,1.527,0,0,0-1.58,1.375Z" transform="translate(-421.212 -138.264)"/>
      <path id="Path_43" data-name="Path 43" class="cls-1" d="M551.856,144.237a2.31,2.31,0,0,0,1.638.79c.5,0,.936-.234.936-.7,0-.965-2.926-.848-2.926-2.6,0-1.024.907-1.521,1.989-1.521.644,0,1.756.234,1.756,1.053v.5h-.936v-.263c0-.322-.468-.468-.819-.468-.614,0-.995.2-.995.644,0,1.024,2.926.79,2.926,2.6,0,.965-.848,1.58-1.989,1.58a2.74,2.74,0,0,1-2.136-.936Z" transform="translate(-435.856 -138.123)"/>
      <path id="Path_44" data-name="Path 44" class="cls-1" d="M579.873,136.384H579.2v-.819h.673v-.176a1.822,1.822,0,0,1,2.019-1.989,2.139,2.139,0,0,1,.38.029v.878a1.2,1.2,0,0,0-.263-.029,1.024,1.024,0,0,0-1.141,1.141v.146h1.287v.819h-1.287v4.564h-1.024v-4.564Z" transform="translate(-455.593 -133.312)"/>
      <path id="Path_45" data-name="Path 45" class="cls-1" d="M594.6,140.4a2.824,2.824,0,1,1-2.9,2.809A2.793,2.793,0,0,1,594.6,140.4Zm0,4.739a1.857,1.857,0,0,0,1.843-1.931,1.844,1.844,0,1,0-3.686,0A1.857,1.857,0,0,0,594.6,145.139Z" transform="translate(-464.436 -138.264)"/>
      <path id="Path_46" data-name="Path 46" class="cls-1" d="M615.173,141.77a.215.215,0,0,0-.234-.234H614.5v-.878h.966q.7,0,.7.614v.351a2.581,2.581,0,0,1-.029.38h.029a1.859,1.859,0,0,1,1.7-1.4,1.206,1.206,0,0,1,.263.029v1.024a1.83,1.83,0,0,0-.321-.029,1.651,1.651,0,0,0-1.522,1.258,3.637,3.637,0,0,0-.117.965v2.194h-1.024V141.77Z" transform="translate(-480.566 -138.406)"/>
      <path id="Path_47" data-name="Path 47" class="cls-1" d="M643.947,142.465h.234v-.059c0-.936-.351-1.287-1.2-1.287-.263,0-.877.059-.877.41v.322h-.966v-.527c0-.878,1.346-1.024,1.872-1.024,1.755,0,2.224.907,2.224,2.106v2.282a.215.215,0,0,0,.234.234h.439v.878h-.965c-.468,0-.673-.234-.673-.614a1.821,1.821,0,0,1,.029-.322h-.029a1.866,1.866,0,0,1-1.726,1.053,1.685,1.685,0,0,1-1.843-1.638C640.7,142.582,643.04,142.465,643.947,142.465Zm-1.2,2.662a1.624,1.624,0,0,0,1.433-1.726v-.176h-.263c-.79,0-2.194.029-2.194,1.024A.94.94,0,0,0,642.748,145.127Z" transform="translate(-499.101 -138.194)"/>
      <path id="Path_48" data-name="Path 48" class="cls-1" d="M672.7,134.407H672V133.5h3.218a1.947,1.947,0,0,1,2.194,1.9,1.717,1.717,0,0,1-.936,1.609v.029a1.789,1.789,0,0,1,1.229,1.814,2.158,2.158,0,0,1-2.428,2.136h-1.9c-.468,0-.673-.2-.673-.673Zm2.545,2.253a1.045,1.045,0,0,0,1.083-1.141,1.03,1.03,0,0,0-1.112-1.112h-1.463v2.253Zm-1.258,3.452h1.346a1.176,1.176,0,0,0,1.258-1.287,1.206,1.206,0,0,0-1.258-1.287h-1.58v2.34A.215.215,0,0,0,673.989,140.112Z" transform="translate(-521.244 -133.383)"/>
      <path id="Path_49" data-name="Path 49" class="cls-1" d="M698.021,140.4a2.282,2.282,0,0,1,2.311,2.516c0,.146-.029.439-.029.439h-3.92a1.8,1.8,0,0,0,1.843,1.785,2.488,2.488,0,0,0,1.58-.614l.439.731a3.123,3.123,0,0,1-2.077.79,2.752,2.752,0,0,1-2.867-2.809A2.643,2.643,0,0,1,698.021,140.4Zm1.258,2.165a1.262,1.262,0,0,0-1.258-1.375,1.527,1.527,0,0,0-1.58,1.375Z" transform="translate(-537.727 -138.264)"/>
      <path id="Path_50" data-name="Path 50" class="cls-1" d="M716.5,138.011h-.7v-.819h.731V135.7h1.024v1.492h1.287v.819h-1.287v2.458c0,1.083.731,1.2,1.141,1.2a.81.81,0,0,0,.234-.029v.907a1.974,1.974,0,0,1-.351.029,1.85,1.85,0,0,1-2.048-2.019v-2.545Z" transform="translate(-552.229 -134.939)"/>
      <path id="Path_51" data-name="Path 51" class="cls-1" d="M730.2,138.011h-.7v-.819h.732V135.7h1.024v1.492h1.287v.819h-1.287v2.458c0,1.083.731,1.2,1.141,1.2a.809.809,0,0,0,.234-.029v.907a1.974,1.974,0,0,1-.351.029,1.85,1.85,0,0,1-2.048-2.019v-2.545Z" transform="translate(-561.921 -134.939)"/>
      <path id="Path_52" data-name="Path 52" class="cls-1" d="M746.021,140.4a2.282,2.282,0,0,1,2.311,2.516c0,.146-.029.439-.029.439h-3.92a1.8,1.8,0,0,0,1.843,1.785,2.487,2.487,0,0,0,1.58-.614l.439.731a3.123,3.123,0,0,1-2.077.79,2.752,2.752,0,0,1-2.867-2.809A2.675,2.675,0,0,1,746.021,140.4Zm1.258,2.165a1.262,1.262,0,0,0-1.258-1.375,1.527,1.527,0,0,0-1.58,1.375Z" transform="translate(-571.684 -138.264)"/>
      <path id="Path_53" data-name="Path 53" class="cls-1" d="M764.473,141.77a.215.215,0,0,0-.234-.234H763.8v-.878h.965q.7,0,.7.614v.351a2.581,2.581,0,0,1-.029.38h.029a1.859,1.859,0,0,1,1.7-1.4,1.207,1.207,0,0,1,.263.029v1.024a1.831,1.831,0,0,0-.322-.029,1.651,1.651,0,0,0-1.522,1.258,3.639,3.639,0,0,0-.117.965v2.194h-1.024V141.77Z" transform="translate(-586.187 -138.406)"/>
      <path id="Path_54" data-name="Path 54" class="cls-1" d="M790.7,134.641a.215.215,0,0,0-.234-.234H790V133.5h1.083c.468,0,.673.2.673.673v5.676a.215.215,0,0,0,.234.234h2.077a.215.215,0,0,0,.234-.234v-.468h.966v.936c0,.468-.2.673-.673.673h-3.218c-.468,0-.673-.2-.673-.673Z" transform="translate(-604.722 -133.383)"/>
      <path id="Path_55" data-name="Path 55" class="cls-1" d="M810.973,136.747a.215.215,0,0,0-.234-.234H810.3v-.878h1.024c.468,0,.673.2.673.673v3.6a.215.215,0,0,0,.234.234h.439v.878h-1.024c-.468,0-.673-.2-.673-.673ZM811,133.5h.936v1.082H811Z" transform="translate(-619.083 -133.383)"/>
      <path id="Path_56" data-name="Path 56" class="cls-1" d="M821.673,136.384H821v-.819h.673v-.176a1.822,1.822,0,0,1,2.019-1.989,2.138,2.138,0,0,1,.38.029v.878a1.206,1.206,0,0,0-.263-.029,1.024,1.024,0,0,0-1.141,1.141v.146h1.287v.819h-1.287v4.564h-1.024v-4.564Z" transform="translate(-626.652 -133.312)"/>
      <path id="Path_57" data-name="Path 57" class="cls-1" d="M836.121,140.4a2.282,2.282,0,0,1,2.311,2.516c0,.146-.029.439-.029.439h-3.92a1.8,1.8,0,0,0,1.843,1.785,2.486,2.486,0,0,0,1.58-.614l.439.731a3.123,3.123,0,0,1-2.077.79,2.752,2.752,0,0,1-2.867-2.809A2.643,2.643,0,0,1,836.121,140.4Zm1.258,2.165a1.262,1.262,0,0,0-1.258-1.375,1.527,1.527,0,0,0-1.58,1.375Z" transform="translate(-635.424 -138.264)"/>
    </g>
  </g>
</svg>
